<?xml version="1.0" encoding="utf-8"?>
<svg viewBox="16.559 72 467.898 365.887" xmlns="http://www.w3.org/2000/svg" xmlns:bx="https://boxy-svg.com">
  <g style="" transform="matrix(1.105481, 0, 0, 1.105481, -6.379267, -21.680052)">
    <title>Bord</title>
    <circle style="fill: rgb(148, 148, 148);" cx="236.418" cy="249.409" r="164.668"/>
    <circle style="fill: rgb(255, 255, 255);" cx="236.418" cy="249.409" r="117.529"/>
    <path style="paint-order: fill; fill: rgb(255, 255, 255);" d="M 104.386 194.973 C 139.071 146.062 160.518 134.19 204.858 122.398 C 168.496 122.298 147.52 139.196 147.52 139.196 C 119.971 157.664 106.852 185.365 104.386 194.973 Z" transform="matrix(0.996195, -0.087156, 0.087156, 0.996195, -13.241985, 14.080081)"/>
    <path d="M -72.614 102 L -81.244 102 L -81.244 66.44 L -57.044 66.44 L -57.044 73.11 L -72.614 73.11 L -72.614 81.58 L -59.174 81.58 L -59.174 88.35 L -72.614 88.35 L -72.614 102 ZM -40.32 102.8 C -44.866 102.8 -48.286 101.583 -50.58 99.15 C -52.873 96.717 -54.02 93.137 -54.02 88.41 C -54.02 83.323 -52.856 79.67 -50.53 77.45 C -48.196 75.23 -44.793 74.12 -40.32 74.12 C -37.293 74.12 -34.76 74.627 -32.72 75.64 C -30.673 76.653 -29.126 78.207 -28.08 80.3 C -27.033 82.4 -26.51 85.103 -26.51 88.41 C -26.51 93.137 -27.7 96.717 -30.08 99.15 C -32.46 101.583 -35.873 102.8 -40.32 102.8 Z M -40.32 96.46 C -39 96.46 -37.906 96.147 -37.04 95.52 C -36.166 94.9 -35.51 93.993 -35.07 92.8 C -34.623 91.613 -34.4 90.15 -34.4 88.41 C -34.4 86.417 -34.623 84.843 -35.07 83.69 C -35.51 82.53 -36.173 81.693 -37.06 81.18 C -37.953 80.667 -39.04 80.41 -40.32 80.41 C -41.666 80.41 -42.766 80.677 -43.62 81.21 C -44.473 81.743 -45.103 82.587 -45.51 83.74 C -45.923 84.893 -46.13 86.45 -46.13 88.41 C -46.13 91.11 -45.656 93.127 -44.71 94.46 C -43.77 95.793 -42.306 96.46 -40.32 96.46 ZM -8.877 102.8 C -13.424 102.8 -16.844 101.583 -19.137 99.15 C -21.43 96.717 -22.577 93.137 -22.577 88.41 C -22.577 83.323 -21.414 79.67 -19.087 77.45 C -16.754 75.23 -13.35 74.12 -8.877 74.12 C -5.85 74.12 -3.317 74.627 -1.277 75.64 C 0.77 76.653 2.316 78.207 3.363 80.3 C 4.41 82.4 4.933 85.103 4.933 88.41 C 4.933 93.137 3.743 96.717 1.363 99.15 C -1.017 101.583 -4.43 102.8 -8.877 102.8 Z M -8.877 96.46 C -7.557 96.46 -6.464 96.147 -5.597 95.52 C -4.724 94.9 -4.067 93.993 -3.627 92.8 C -3.18 91.613 -2.957 90.15 -2.957 88.41 C -2.957 86.417 -3.18 84.843 -3.627 83.69 C -4.067 82.53 -4.73 81.693 -5.617 81.18 C -6.51 80.667 -7.597 80.41 -8.877 80.41 C -10.224 80.41 -11.324 80.677 -12.177 81.21 C -13.03 81.743 -13.66 82.587 -14.067 83.74 C -14.48 84.893 -14.687 86.45 -14.687 88.41 C -14.687 91.11 -14.214 93.127 -13.267 94.46 C -12.327 95.793 -10.864 96.46 -8.877 96.46 ZM 23.316 102.8 C 21.216 102.8 19.289 102.57 17.536 102.11 C 15.776 101.643 14.256 100.87 12.976 99.79 C 11.696 98.703 10.692 97.22 9.966 95.34 C 9.232 93.453 8.866 91.107 8.866 88.3 C 8.866 83.927 9.942 80.48 12.096 77.96 C 14.242 75.433 17.466 74.17 21.766 74.17 C 22.339 74.17 23.086 74.213 24.006 74.3 C 24.932 74.393 25.892 74.617 26.886 74.97 C 27.879 75.323 28.769 75.927 29.556 76.78 L 27.956 79.24 L 27.956 63.94 L 35.846 63.94 L 35.846 94.96 C 35.846 96.28 35.489 97.427 34.776 98.4 C 34.069 99.38 33.119 100.19 31.926 100.83 C 30.732 101.47 29.389 101.957 27.896 102.29 C 26.409 102.63 24.882 102.8 23.316 102.8 Z M 23.636 96.14 C 24.916 96.14 25.956 95.97 26.756 95.63 C 27.556 95.29 27.956 94.783 27.956 94.11 L 27.956 81.69 C 27.316 81.337 26.632 81.06 25.906 80.86 C 25.172 80.667 24.469 80.57 23.796 80.57 C 22.302 80.57 21.039 80.82 20.006 81.32 C 18.979 81.813 18.209 82.647 17.696 83.82 C 17.176 84.993 16.916 86.577 16.916 88.57 C 16.916 90.13 17.129 91.47 17.556 92.59 C 17.982 93.71 18.686 94.58 19.666 95.2 C 20.639 95.827 21.962 96.14 23.636 96.14 ZM 58.861 102.69 C 53.174 102.69 48.831 101.19 45.831 98.19 C 42.824 95.183 41.321 90.537 41.321 84.25 C 41.321 78.137 42.761 73.507 45.641 70.36 C 48.521 67.213 52.928 65.64 58.861 65.64 C 60.748 65.64 62.651 65.87 64.571 66.33 C 66.491 66.797 68.354 67.437 70.161 68.25 L 70.161 75.77 C 68.314 74.563 66.538 73.693 64.831 73.16 C 63.124 72.627 61.524 72.36 60.031 72.36 C 57.938 72.36 56.171 72.733 54.731 73.48 C 53.291 74.227 52.191 75.47 51.431 77.21 C 50.664 78.95 50.281 81.297 50.281 84.25 C 50.281 87.197 50.664 89.523 51.431 91.23 C 52.191 92.937 53.328 94.153 54.841 94.88 C 56.348 95.613 58.204 95.98 60.411 95.98 C 61.724 95.98 63.218 95.73 64.891 95.23 C 66.558 94.73 68.314 93.877 70.161 92.67 L 70.161 100.19 C 69.168 100.683 68.041 101.117 66.781 101.49 C 65.521 101.863 64.204 102.157 62.831 102.37 C 61.464 102.583 60.141 102.69 58.861 102.69 ZM 84.335 102 L 76.445 102 L 76.445 64.36 L 84.445 64.36 L 84.445 80.36 L 81.085 78.54 C 82.505 77.3 84.182 76.28 86.115 75.48 C 88.055 74.68 90.039 74.28 92.065 74.28 C 94.019 74.28 95.742 74.6 97.235 75.24 C 98.729 75.88 99.892 76.92 100.725 78.36 C 101.559 79.8 101.975 81.78 101.975 84.3 L 101.975 102 L 94.035 102 L 94.035 85.95 C 94.035 84.177 93.602 82.89 92.735 82.09 C 91.862 81.29 90.589 80.89 88.915 80.89 C 88.062 80.89 87.219 81.007 86.385 81.24 C 85.552 81.467 84.905 81.757 84.445 82.11 L 84.335 102 ZM 121.157 102.8 C 116.61 102.8 113.19 101.583 110.897 99.15 C 108.604 96.717 107.457 93.137 107.457 88.41 C 107.457 83.323 108.62 79.67 110.947 77.45 C 113.28 75.23 116.684 74.12 121.157 74.12 C 124.184 74.12 126.717 74.627 128.757 75.64 C 130.804 76.653 132.35 78.207 133.397 80.3 C 134.444 82.4 134.967 85.103 134.967 88.41 C 134.967 93.137 133.777 96.717 131.397 99.15 C 129.017 101.583 125.604 102.8 121.157 102.8 Z M 121.157 96.46 C 122.477 96.46 123.57 96.147 124.437 95.52 C 125.31 94.9 125.967 93.993 126.407 92.8 C 126.854 91.613 127.077 90.15 127.077 88.41 C 127.077 86.417 126.854 84.843 126.407 83.69 C 125.967 82.53 125.304 81.693 124.417 81.18 C 123.524 80.667 122.437 80.41 121.157 80.41 C 119.81 80.41 118.71 80.677 117.857 81.21 C 117.004 81.743 116.374 82.587 115.967 83.74 C 115.554 84.893 115.347 86.45 115.347 88.41 C 115.347 91.11 115.82 93.127 116.767 94.46 C 117.707 95.793 119.17 96.46 121.157 96.46 ZM 152.6 102.8 C 148.053 102.8 144.633 101.583 142.34 99.15 C 140.046 96.717 138.9 93.137 138.9 88.41 C 138.9 83.323 140.063 79.67 142.39 77.45 C 144.723 75.23 148.126 74.12 152.6 74.12 C 155.626 74.12 158.16 74.627 160.2 75.64 C 162.246 76.653 163.793 78.207 164.84 80.3 C 165.886 82.4 166.41 85.103 166.41 88.41 C 166.41 93.137 165.22 96.717 162.84 99.15 C 160.46 101.583 157.046 102.8 152.6 102.8 Z M 152.6 96.46 C 153.92 96.46 155.013 96.147 155.88 95.52 C 156.753 94.9 157.41 93.993 157.85 92.8 C 158.296 91.613 158.52 90.15 158.52 88.41 C 158.52 86.417 158.296 84.843 157.85 83.69 C 157.41 82.53 156.746 81.693 155.86 81.18 C 154.966 80.667 153.88 80.41 152.6 80.41 C 151.253 80.41 150.153 80.677 149.3 81.21 C 148.446 81.743 147.816 82.587 147.41 83.74 C 146.996 84.893 146.79 86.45 146.79 88.41 C 146.79 91.11 147.263 93.127 148.21 94.46 C 149.15 95.793 150.613 96.46 152.6 96.46 ZM 179.892 102.8 C 177.972 102.8 176.326 102.597 174.952 102.19 C 173.586 101.777 172.299 101.323 171.092 100.83 L 171.092 93.84 C 171.839 94.34 172.672 94.847 173.592 95.36 C 174.519 95.88 175.542 96.3 176.662 96.62 C 177.782 96.94 178.966 97.1 180.212 97.1 C 181.486 97.1 182.382 96.877 182.902 96.43 C 183.416 95.983 183.672 95.44 183.672 94.8 C 183.672 94.2 183.406 93.713 182.872 93.34 C 182.339 92.967 181.646 92.653 180.792 92.4 C 179.939 92.153 179.032 91.923 178.072 91.71 C 177.219 91.53 176.366 91.253 175.512 90.88 C 174.659 90.507 173.896 90.003 173.222 89.37 C 172.549 88.73 172.009 87.937 171.602 86.99 C 171.189 86.05 170.982 84.903 170.982 83.55 C 170.982 81.81 171.322 80.363 172.002 79.21 C 172.676 78.057 173.562 77.123 174.662 76.41 C 175.762 75.697 176.952 75.19 178.232 74.89 C 179.512 74.59 180.756 74.457 181.962 74.49 C 184.169 74.563 185.922 74.803 187.222 75.21 C 188.516 75.617 189.696 76.14 190.762 76.78 L 190.762 83.02 C 189.556 82.347 188.356 81.717 187.162 81.13 C 185.976 80.543 184.616 80.25 183.082 80.25 C 181.696 80.25 180.702 80.463 180.102 80.89 C 179.496 81.317 179.192 81.883 179.192 82.59 C 179.192 83.27 179.399 83.803 179.812 84.19 C 180.219 84.583 180.759 84.897 181.432 85.13 C 182.106 85.357 182.852 85.577 183.672 85.79 C 184.559 86.003 185.476 86.263 186.422 86.57 C 187.362 86.87 188.249 87.297 189.082 87.85 C 189.916 88.397 190.592 89.16 191.112 90.14 C 191.626 91.113 191.882 92.4 191.882 94 C 191.849 96.173 191.262 97.907 190.122 99.2 C 188.989 100.5 187.522 101.423 185.722 101.97 C 183.929 102.523 181.986 102.8 179.892 102.8 ZM 209.79 102.8 C 207.09 102.8 204.7 102.24 202.62 101.12 C 200.54 100 198.923 98.4 197.77 96.32 C 196.61 94.24 196.03 91.763 196.03 88.89 C 196.03 84.197 197.193 80.56 199.52 77.98 C 201.853 75.407 205.186 74.12 209.52 74.12 C 212.506 74.12 214.913 74.76 216.74 76.04 C 218.573 77.32 219.916 79.183 220.77 81.63 C 221.623 84.083 222.033 87.07 222 90.59 L 201.47 90.59 L 200.62 85.53 L 215.44 85.53 L 214.27 88.03 C 214.23 85.15 213.82 83.123 213.04 81.95 C 212.26 80.783 210.98 80.2 209.2 80.2 C 208.206 80.2 207.31 80.447 206.51 80.94 C 205.71 81.44 205.086 82.267 204.64 83.42 C 204.2 84.573 203.98 86.163 203.98 88.19 C 203.98 90.75 204.593 92.723 205.82 94.11 C 207.04 95.497 209.003 96.19 211.71 96.19 C 212.703 96.19 213.686 96.073 214.66 95.84 C 215.64 95.613 216.556 95.34 217.41 95.02 C 218.263 94.7 218.993 94.413 219.6 94.16 L 219.6 100.99 C 218.32 101.523 216.886 101.957 215.3 102.29 C 213.72 102.63 211.883 102.8 209.79 102.8 Z" transform="matrix(0.6787140369415283, 0, 0, 0.6787140369415283, 189.0422821044922, 164.9575958251953)" style="fill: rgb(28, 136, 95); text-transform: capitalize; white-space: pre;"/>
    <path d="M 57.761 281.652 C 57.468 281.652 57.201 281.632 56.961 281.592 C 56.728 281.552 56.481 281.492 56.221 281.412 L 56.401 279.362 C 56.528 279.409 56.745 279.449 57.051 279.482 C 57.358 279.522 57.595 279.542 57.761 279.542 C 58.295 279.542 58.718 279.305 59.031 278.832 C 59.351 278.365 59.511 277.722 59.511 276.902 L 59.511 263.012 L 57.281 262.622 L 57.281 260.892 L 62.201 260.892 L 62.201 276.902 C 62.201 278.422 61.808 279.595 61.021 280.422 C 60.241 281.242 59.155 281.652 57.761 281.652 Z M 62.201 257.242 L 59.371 257.242 L 59.371 254.352 L 62.201 254.352 L 62.201 257.242 ZM 71.866 275.972 C 70.499 275.972 69.319 275.649 68.326 275.002 C 67.339 274.362 66.576 273.475 66.036 272.342 C 65.502 271.209 65.236 269.912 65.236 268.452 L 65.236 268.152 C 65.236 266.692 65.502 265.395 66.036 264.262 C 66.576 263.122 67.339 262.229 68.326 261.582 C 69.319 260.935 70.489 260.612 71.836 260.612 C 73.202 260.612 74.379 260.935 75.366 261.582 C 76.359 262.229 77.122 263.119 77.656 264.252 C 78.196 265.385 78.466 266.685 78.466 268.152 L 78.466 268.452 C 78.466 269.919 78.196 271.219 77.656 272.352 C 77.122 273.485 76.362 274.372 75.376 275.012 C 74.389 275.652 73.219 275.972 71.866 275.972 Z M 71.866 273.862 C 72.719 273.862 73.436 273.629 74.016 273.162 C 74.596 272.689 75.032 272.045 75.326 271.232 C 75.626 270.419 75.776 269.492 75.776 268.452 L 75.776 268.152 C 75.776 267.112 75.626 266.182 75.326 265.362 C 75.032 264.549 74.592 263.909 74.006 263.442 C 73.426 262.969 72.702 262.732 71.836 262.732 C 70.976 262.732 70.256 262.969 69.676 263.442 C 69.089 263.909 68.652 264.549 68.366 265.362 C 68.072 266.182 67.926 267.112 67.926 268.152 L 67.926 268.452 C 67.926 269.492 68.072 270.419 68.366 271.232 C 68.652 272.045 69.092 272.689 69.686 273.162 C 70.272 273.629 70.999 273.862 71.866 273.862 ZM 87.045 275.972 C 85.439 275.972 84.185 275.455 83.285 274.422 C 82.385 273.395 81.935 271.792 81.935 269.612 L 81.935 263.012 L 80.235 262.622 L 80.235 260.892 L 81.935 260.892 L 84.625 260.892 L 84.625 269.642 C 84.625 271.215 84.859 272.299 85.325 272.892 C 85.785 273.485 86.509 273.782 87.495 273.782 C 88.455 273.782 89.245 273.589 89.865 273.202 C 90.492 272.815 90.965 272.265 91.285 271.552 L 91.285 263.012 L 89.305 262.622 L 89.305 260.892 L 91.285 260.892 L 93.975 260.892 L 93.975 273.572 L 95.675 273.962 L 95.675 275.682 L 91.555 275.682 L 91.375 273.492 C 90.915 274.285 90.319 274.895 89.585 275.322 C 88.852 275.755 88.005 275.972 87.045 275.972 ZM 105.109 275.682 L 102.799 275.682 L 98.909 262.812 L 97.249 262.622 L 97.249 260.892 L 103.359 260.892 L 103.359 262.622 L 101.539 262.922 L 103.579 270.292 L 104.049 272.042 L 104.129 272.042 L 104.729 270.292 L 107.939 260.892 L 110.209 260.892 L 113.269 270.272 L 113.929 272.342 L 114.009 272.342 L 114.659 270.272 L 116.719 262.912 L 114.859 262.622 L 114.859 260.892 L 120.829 260.892 L 120.829 262.622 L 119.189 262.862 L 115.369 275.682 L 112.809 275.682 L 109.819 266.792 L 109.099 264.412 L 109.019 264.432 L 108.329 266.792 L 105.109 275.682 ZM 136.536 275.682 L 129.386 275.682 L 129.386 273.962 L 131.616 273.572 L 131.616 263.012 L 129.386 262.622 L 129.386 260.892 L 134.026 260.892 L 134.256 262.772 L 134.286 263.032 C 134.706 262.279 135.223 261.689 135.836 261.262 C 136.449 260.829 137.153 260.612 137.946 260.612 C 138.233 260.612 138.523 260.639 138.816 260.692 C 139.116 260.739 139.329 260.785 139.456 260.832 L 139.096 263.332 L 137.226 263.222 C 136.513 263.182 135.916 263.345 135.436 263.712 C 134.949 264.079 134.576 264.572 134.316 265.192 L 134.316 273.572 L 136.536 273.962 L 136.536 275.682 ZM 147.553 275.972 C 146.186 275.972 144.996 275.659 143.983 275.032 C 142.976 274.405 142.196 273.539 141.643 272.432 C 141.089 271.319 140.813 270.032 140.813 268.572 L 140.813 267.972 C 140.813 266.565 141.103 265.309 141.683 264.202 C 142.263 263.095 143.033 262.222 143.993 261.582 C 144.953 260.935 146.003 260.612 147.143 260.612 C 148.476 260.612 149.589 260.885 150.483 261.432 C 151.383 261.979 152.059 262.749 152.513 263.742 C 152.973 264.729 153.203 265.892 153.203 267.232 L 153.203 268.912 L 143.603 268.912 L 143.563 268.982 C 143.583 269.929 143.749 270.769 144.063 271.502 C 144.376 272.235 144.829 272.812 145.423 273.232 C 146.016 273.652 146.726 273.862 147.553 273.862 C 148.466 273.862 149.266 273.732 149.953 273.472 C 150.639 273.212 151.236 272.855 151.743 272.402 L 152.793 274.152 C 152.266 274.659 151.566 275.089 150.693 275.442 C 149.819 275.795 148.773 275.972 147.553 275.972 Z M 143.663 266.742 L 143.683 266.812 L 150.513 266.812 L 150.513 266.452 C 150.513 265.745 150.386 265.109 150.133 264.542 C 149.879 263.982 149.506 263.542 149.013 263.222 C 148.513 262.895 147.889 262.732 147.143 262.732 C 146.543 262.732 145.996 262.909 145.503 263.262 C 145.009 263.615 144.603 264.092 144.283 264.692 C 143.969 265.292 143.763 265.975 143.663 266.742 ZM 162.521 275.972 C 161.181 275.972 160.014 275.659 159.021 275.032 C 158.028 274.405 157.258 273.539 156.711 272.432 C 156.164 271.319 155.891 270.032 155.891 268.572 L 155.891 268.002 C 155.891 266.595 156.154 265.335 156.681 264.222 C 157.208 263.109 157.968 262.229 158.961 261.582 C 159.954 260.935 161.141 260.612 162.521 260.612 C 163.714 260.612 164.758 260.809 165.651 261.202 C 166.551 261.595 167.308 262.132 167.921 262.812 L 167.991 266.372 L 165.881 266.372 L 165.421 263.792 C 165.108 263.472 164.718 263.215 164.251 263.022 C 163.791 262.829 163.244 262.732 162.611 262.732 C 161.811 262.732 161.108 262.969 160.501 263.442 C 159.894 263.915 159.424 264.549 159.091 265.342 C 158.751 266.135 158.581 267.022 158.581 268.002 L 158.581 268.572 C 158.581 269.645 158.738 270.579 159.051 271.372 C 159.364 272.165 159.814 272.779 160.401 273.212 C 160.994 273.645 161.694 273.862 162.501 273.862 C 163.414 273.862 164.171 273.612 164.771 273.112 C 165.378 272.612 165.748 271.925 165.881 271.052 L 168.301 271.052 L 168.331 271.132 C 168.284 271.979 168.034 272.772 167.581 273.512 C 167.121 274.245 166.471 274.839 165.631 275.292 C 164.784 275.745 163.748 275.972 162.521 275.972 ZM 177.494 275.972 C 176.127 275.972 174.937 275.659 173.924 275.032 C 172.917 274.405 172.137 273.539 171.584 272.432 C 171.03 271.319 170.754 270.032 170.754 268.572 L 170.754 267.972 C 170.754 266.565 171.044 265.309 171.624 264.202 C 172.204 263.095 172.974 262.222 173.934 261.582 C 174.894 260.935 175.944 260.612 177.084 260.612 C 178.417 260.612 179.53 260.885 180.424 261.432 C 181.324 261.979 182 262.749 182.454 263.742 C 182.914 264.729 183.144 265.892 183.144 267.232 L 183.144 268.912 L 173.544 268.912 L 173.504 268.982 C 173.524 269.929 173.69 270.769 174.004 271.502 C 174.317 272.235 174.77 272.812 175.364 273.232 C 175.957 273.652 176.667 273.862 177.494 273.862 C 178.407 273.862 179.207 273.732 179.894 273.472 C 180.58 273.212 181.177 272.855 181.684 272.402 L 182.734 274.152 C 182.207 274.659 181.507 275.089 180.634 275.442 C 179.76 275.795 178.714 275.972 177.494 275.972 Z M 173.604 266.742 L 173.624 266.812 L 180.454 266.812 L 180.454 266.452 C 180.454 265.745 180.327 265.109 180.074 264.542 C 179.82 263.982 179.447 263.542 178.954 263.222 C 178.454 262.895 177.83 262.732 177.084 262.732 C 176.484 262.732 175.937 262.909 175.444 263.262 C 174.95 263.615 174.544 264.092 174.224 264.692 C 173.91 265.292 173.704 265.975 173.604 266.742 ZM 191.955 281.372 L 184.815 281.372 L 184.815 279.632 L 186.905 279.252 L 186.905 263.012 L 184.675 262.622 L 184.675 260.892 L 189.215 260.892 L 189.465 262.692 C 189.958 262.019 190.558 261.505 191.265 261.152 C 191.972 260.792 192.788 260.612 193.715 260.612 C 194.935 260.612 195.978 260.942 196.845 261.602 C 197.712 262.269 198.375 263.195 198.835 264.382 C 199.288 265.569 199.515 266.962 199.515 268.562 L 199.515 268.842 C 199.515 270.269 199.285 271.515 198.825 272.582 C 198.365 273.649 197.705 274.479 196.845 275.072 C 195.992 275.672 194.962 275.972 193.755 275.972 C 192.848 275.972 192.048 275.819 191.355 275.512 C 190.668 275.205 190.085 274.752 189.605 274.152 L 189.605 279.252 L 191.955 279.632 L 191.955 281.372 Z M 192.925 273.862 C 194.198 273.862 195.165 273.399 195.825 272.472 C 196.478 271.539 196.805 270.329 196.805 268.842 L 196.805 268.562 C 196.805 267.429 196.658 266.432 196.365 265.572 C 196.078 264.712 195.645 264.035 195.065 263.542 C 194.485 263.049 193.762 262.802 192.895 262.802 C 192.128 262.802 191.472 262.975 190.925 263.322 C 190.378 263.669 189.938 264.142 189.605 264.742 L 189.605 271.952 C 189.938 272.559 190.378 273.029 190.925 273.362 C 191.465 273.695 192.132 273.862 192.925 273.862 ZM 206.802 275.912 C 205.709 275.912 204.842 275.592 204.202 274.952 C 203.562 274.305 203.242 273.279 203.242 271.872 L 203.242 262.882 L 200.902 262.882 L 200.902 260.892 L 203.242 260.892 L 203.242 257.322 L 205.932 257.322 L 205.932 260.892 L 209.142 260.892 L 209.142 262.882 L 205.932 262.882 L 205.932 271.872 C 205.932 272.579 206.072 273.102 206.352 273.442 C 206.639 273.775 207.019 273.942 207.492 273.942 C 207.812 273.942 208.166 273.912 208.552 273.852 C 208.946 273.799 209.252 273.749 209.472 273.702 L 209.842 275.462 C 209.449 275.582 208.969 275.689 208.402 275.782 C 207.829 275.869 207.296 275.912 206.802 275.912 ZM 218.025 275.972 C 216.658 275.972 215.468 275.659 214.455 275.032 C 213.448 274.405 212.668 273.539 212.115 272.432 C 211.561 271.319 211.285 270.032 211.285 268.572 L 211.285 267.972 C 211.285 266.565 211.575 265.309 212.155 264.202 C 212.735 263.095 213.505 262.222 214.465 261.582 C 215.425 260.935 216.475 260.612 217.615 260.612 C 218.948 260.612 220.061 260.885 220.955 261.432 C 221.855 261.979 222.531 262.749 222.985 263.742 C 223.445 264.729 223.675 265.892 223.675 267.232 L 223.675 268.912 L 214.075 268.912 L 214.035 268.982 C 214.055 269.929 214.221 270.769 214.535 271.502 C 214.848 272.235 215.301 272.812 215.895 273.232 C 216.488 273.652 217.198 273.862 218.025 273.862 C 218.938 273.862 219.738 273.732 220.425 273.472 C 221.111 273.212 221.708 272.855 222.215 272.402 L 223.265 274.152 C 222.738 274.659 222.038 275.089 221.165 275.442 C 220.291 275.795 219.245 275.972 218.025 275.972 Z M 214.135 266.742 L 214.155 266.812 L 220.985 266.812 L 220.985 266.452 C 220.985 265.745 220.858 265.109 220.605 264.542 C 220.351 263.982 219.978 263.542 219.485 263.222 C 218.985 262.895 218.361 262.732 217.615 262.732 C 217.015 262.732 216.468 262.909 215.975 263.262 C 215.481 263.615 215.075 264.092 214.755 264.692 C 214.441 265.292 214.235 265.975 214.135 266.742 ZM 232.906 275.682 L 225.756 275.682 L 225.756 273.962 L 227.986 273.572 L 227.986 263.012 L 225.756 262.622 L 225.756 260.892 L 230.396 260.892 L 230.586 263.092 C 231.08 262.305 231.696 261.695 232.436 261.262 C 233.176 260.829 234.023 260.612 234.976 260.612 C 236.57 260.612 237.803 261.079 238.676 262.012 C 239.55 262.952 239.986 264.395 239.986 266.342 L 239.986 273.572 L 242.216 273.962 L 242.216 275.682 L 235.066 275.682 L 235.066 273.962 L 237.296 273.572 L 237.296 266.402 C 237.296 265.095 237.04 264.169 236.526 263.622 C 236.013 263.075 235.226 262.802 234.166 262.802 C 233.393 262.802 232.706 262.989 232.106 263.362 C 231.513 263.735 231.036 264.245 230.676 264.892 L 230.676 273.572 L 232.906 273.962 L 232.906 275.682 Z" transform="matrix(1, 0, 0, 1, 86.63900756835938, 0.544899046421051)" style="fill: rgb(51, 51, 51); white-space: pre;"/>
    <path d="M 100.699 303.972 C 99.333 303.972 98.153 303.649 97.159 303.002 C 96.173 302.362 95.409 301.475 94.869 300.342 C 94.336 299.209 94.069 297.912 94.069 296.452 L 94.069 296.152 C 94.069 294.692 94.336 293.395 94.869 292.262 C 95.409 291.122 96.173 290.229 97.159 289.582 C 98.153 288.935 99.323 288.612 100.669 288.612 C 102.036 288.612 103.213 288.935 104.199 289.582 C 105.193 290.229 105.956 291.119 106.489 292.252 C 107.029 293.385 107.299 294.685 107.299 296.152 L 107.299 296.452 C 107.299 297.919 107.029 299.219 106.489 300.352 C 105.956 301.485 105.196 302.372 104.209 303.012 C 103.223 303.652 102.053 303.972 100.699 303.972 Z M 100.699 301.862 C 101.553 301.862 102.269 301.629 102.849 301.162 C 103.429 300.689 103.866 300.045 104.159 299.232 C 104.459 298.419 104.609 297.492 104.609 296.452 L 104.609 296.152 C 104.609 295.112 104.459 294.182 104.159 293.362 C 103.866 292.549 103.426 291.909 102.839 291.442 C 102.259 290.969 101.536 290.732 100.669 290.732 C 99.809 290.732 99.089 290.969 98.509 291.442 C 97.923 291.909 97.486 292.549 97.199 293.362 C 96.906 294.182 96.759 295.112 96.759 296.152 L 96.759 296.452 C 96.759 297.492 96.906 298.419 97.199 299.232 C 97.486 300.045 97.926 300.689 98.519 301.162 C 99.106 301.629 99.833 301.862 100.699 301.862 ZM 116.099 309.372 L 108.959 309.372 L 108.959 307.632 L 111.049 307.252 L 111.049 291.012 L 108.819 290.622 L 108.819 288.892 L 113.359 288.892 L 113.609 290.692 C 114.103 290.019 114.703 289.505 115.409 289.152 C 116.116 288.792 116.933 288.612 117.859 288.612 C 119.079 288.612 120.123 288.942 120.989 289.602 C 121.856 290.269 122.519 291.195 122.979 292.382 C 123.433 293.569 123.659 294.962 123.659 296.562 L 123.659 296.842 C 123.659 298.269 123.429 299.515 122.969 300.582 C 122.509 301.649 121.849 302.479 120.989 303.072 C 120.136 303.672 119.106 303.972 117.899 303.972 C 116.993 303.972 116.193 303.819 115.499 303.512 C 114.813 303.205 114.229 302.752 113.749 302.152 L 113.749 307.252 L 116.099 307.632 L 116.099 309.372 Z M 117.069 301.862 C 118.343 301.862 119.309 301.399 119.969 300.472 C 120.623 299.539 120.949 298.329 120.949 296.842 L 120.949 296.562 C 120.949 295.429 120.803 294.432 120.509 293.572 C 120.223 292.712 119.789 292.035 119.209 291.542 C 118.629 291.049 117.906 290.802 117.039 290.802 C 116.273 290.802 115.616 290.975 115.069 291.322 C 114.523 291.669 114.083 292.142 113.749 292.742 L 113.749 299.952 C 114.083 300.559 114.523 301.029 115.069 301.362 C 115.609 301.695 116.276 301.862 117.069 301.862 ZM 142.162 303.682 L 133.322 303.682 L 133.322 301.962 L 136.402 301.572 L 136.402 286.662 L 133.272 286.712 L 133.272 285.032 L 139.092 283.772 L 139.092 301.572 L 142.162 301.962 L 142.162 303.682 ZM 157.901 309.372 L 150.761 309.372 L 150.761 307.632 L 152.851 307.252 L 152.851 291.012 L 150.621 290.622 L 150.621 288.892 L 155.161 288.892 L 155.411 290.692 C 155.905 290.019 156.505 289.505 157.211 289.152 C 157.918 288.792 158.735 288.612 159.661 288.612 C 160.881 288.612 161.925 288.942 162.791 289.602 C 163.658 290.269 164.321 291.195 164.781 292.382 C 165.235 293.569 165.461 294.962 165.461 296.562 L 165.461 296.842 C 165.461 298.269 165.231 299.515 164.771 300.582 C 164.311 301.649 163.651 302.479 162.791 303.072 C 161.938 303.672 160.908 303.972 159.701 303.972 C 158.795 303.972 157.995 303.819 157.301 303.512 C 156.615 303.205 156.031 302.752 155.551 302.152 L 155.551 307.252 L 157.901 307.632 L 157.901 309.372 Z M 158.871 301.862 C 160.145 301.862 161.111 301.399 161.771 300.472 C 162.425 299.539 162.751 298.329 162.751 296.842 L 162.751 296.562 C 162.751 295.429 162.605 294.432 162.311 293.572 C 162.025 292.712 161.591 292.035 161.011 291.542 C 160.431 291.049 159.708 290.802 158.841 290.802 C 158.075 290.802 157.418 290.975 156.871 291.322 C 156.325 291.669 155.885 292.142 155.551 292.742 L 155.551 299.952 C 155.885 300.559 156.325 301.029 156.871 301.362 C 157.411 301.695 158.078 301.862 158.871 301.862 ZM 174.412 303.682 L 167.262 303.682 L 167.262 301.962 L 169.482 301.572 L 169.482 284.472 L 167.262 284.092 L 167.262 282.352 L 172.182 282.352 L 172.182 301.572 L 174.412 301.962 L 174.412 303.682 ZM 182.782 303.972 C 181.415 303.972 180.225 303.659 179.212 303.032 C 178.205 302.405 177.425 301.539 176.872 300.432 C 176.319 299.319 176.042 298.032 176.042 296.572 L 176.042 295.972 C 176.042 294.565 176.332 293.309 176.912 292.202 C 177.492 291.095 178.262 290.222 179.222 289.582 C 180.182 288.935 181.232 288.612 182.372 288.612 C 183.705 288.612 184.819 288.885 185.712 289.432 C 186.612 289.979 187.289 290.749 187.742 291.742 C 188.202 292.729 188.432 293.892 188.432 295.232 L 188.432 296.912 L 178.832 296.912 L 178.792 296.982 C 178.812 297.929 178.979 298.769 179.292 299.502 C 179.605 300.235 180.059 300.812 180.652 301.232 C 181.245 301.652 181.955 301.862 182.782 301.862 C 183.695 301.862 184.495 301.732 185.182 301.472 C 185.869 301.212 186.465 300.855 186.972 300.402 L 188.022 302.152 C 187.495 302.659 186.795 303.089 185.922 303.442 C 185.049 303.795 184.002 303.972 182.782 303.972 Z M 178.892 294.742 L 178.912 294.812 L 185.742 294.812 L 185.742 294.452 C 185.742 293.745 185.615 293.109 185.362 292.542 C 185.109 291.982 184.735 291.542 184.242 291.222 C 183.742 290.895 183.119 290.732 182.372 290.732 C 181.772 290.732 181.225 290.909 180.732 291.262 C 180.239 291.615 179.832 292.092 179.512 292.692 C 179.199 293.292 178.992 293.975 178.892 294.742 ZM 197.533 303.682 L 190.383 303.682 L 190.383 301.962 L 192.603 301.572 L 192.603 284.472 L 190.383 284.092 L 190.383 282.352 L 195.303 282.352 L 195.303 301.572 L 197.533 301.962 L 197.533 303.682 Z M 206.563 303.682 L 199.883 303.682 L 199.883 301.962 L 201.383 301.782 L 201.343 301.722 L 197.063 296.202 L 198.463 294.052 L 204.433 301.632 L 206.563 301.962 L 206.563 303.682 Z M 203.493 290.982 L 195.113 299.402 L 194.113 297.282 L 200.533 290.882 L 200.603 290.802 L 199.023 290.622 L 199.023 288.892 L 205.393 288.892 L 205.393 290.622 L 203.493 290.982 Z" transform="matrix(1, 0, 0, 1, 86.63900756835938, 0.544899046421051)" style="fill: rgb(51, 51, 51); white-space: pre;"/>
  </g>
  <g transform="matrix(0.826018, 0, 0, 1.071793, 422.296967, 2.695667)" style="">
    <title>Mes</title>
    <path style="fill: rgb(207, 207, 207);" d="M 53.312 171.541 H 75.252 V 398.889 A 7.151 7.151 0 0 1 68.101 406.04 H 59.569 A 6.257 6.257 0 0 1 53.312 399.783 V 171.541 Z" bx:shape="rect 53.312 171.541 21.94 234.499 0 0 7.151 6.257 1@13f0789d"/>
    <path style="fill: rgb(207, 207, 207);" d="M 74.961 240.453 L 74.961 66.011 C 44.622 77.465 27.317 103.549 23.047 145.407 C 19.265 182.48 36.57 214.544 74.961 240.453 Z"/>
  </g>
  <g transform="matrix(1.163334, 0, 0, 0.869342, -20.613323, 36.01862)" style="">
    <g style="" transform="matrix(0.834808, 0, 0, 0.921959, 6.181823, -42.904766)">
      <path style="fill: rgb(207, 207, 207);" d="M 34.839 93.703 L 39.275 93.703 L 44.032 189.469 L 36.269 189.469 C 33.288 189.469 30.871 187.052 30.871 184.071 L 34.839 93.703 Z"/>
      <path d="M 54.672 93.867 L 59.335 93.703 L 62.983 189.469 L 49.822 189.469 L 54.672 93.867 Z" style="fill: rgb(207, 207, 207);"/>
      <path style="fill: rgb(207, 207, 207);" d="M 72.756 93.08 L 77.384 93.08 L 81.935 184.11 C 81.935 187.091 79.518 189.508 76.537 189.508 L 68.774 189.508 L 72.756 93.08 Z"/>
      <rect x="39.334" y="173.665" width="33.689" height="15.838" style="fill: rgb(207, 207, 207);"/>
    </g>
    <path style="fill: rgb(207, 207, 207);" d="M 47.969 118.627 L 58.634 119.776 L 62.605 453.478 C 62.605 457.362 59.403 460.512 55.454 460.512 L 47.842 460.512 C 44.386 460.512 41.585 457.757 41.585 454.357 L 47.969 118.627 Z"/>
  </g>
</svg>