<svg xmlns="http://www.w3.org/2000/svg" width="222.825" height="151.805" viewBox="0 0 222.825 151.805"><g transform="translate(39.485 0.481)"><path d="M125.42,165.2c39.417,0,71.37-32.281,71.37-72.1S164.837,21,125.42,21,54.05,53.281,54.05,93.1,86,165.2,125.42,165.2Z" transform="translate(-54.05 -21)" fill="#949494"/><path d="M116.126,135.175c28.133,0,50.939-23.04,50.939-51.462S144.26,32.251,116.126,32.251,65.187,55.292,65.187,83.713,87.993,135.175,116.126,135.175Z" transform="translate(-44.756 -11.611)" fill="#fff"/><path d="M62.553,64.467c13.128-22.659,21.94-28.656,40.639-35.491-15.7,1.344-24.122,9.515-24.122,9.515C67.873,47.6,63.254,60.182,62.553,64.467Z" transform="translate(-46.954 -14.344)" fill="#fff"/></g><g transform="translate(183.793 0.052)"><path d="M138.127,45.733H147.9V147.625a3.208,3.208,0,0,1-.934,2.266,3.169,3.169,0,0,1-2.254.939h-3.8a2.763,2.763,0,0,1-1.065-.213,2.805,2.805,0,0,1-1.721-2.591Z" transform="translate(-128.451 0.924)" fill="#cfcfcf"/><path d="M152.046,99.492V21.312c-11.2,5.133-17.587,16.823-19.164,35.583C131.485,73.51,137.873,87.881,152.046,99.492Z" transform="translate(-132.694 -21.312)" fill="#cfcfcf"/></g><g transform="translate(7.149)"><path d="M43.6,21.393h1.783l1.912,32.1H44.17A2.014,2.014,0,0,1,42,51.68Z" transform="translate(-42 -21.185)" fill="#cfcfcf"/><path d="M47.883,21.448l1.874-.055,1.466,32.1h-5.29Z" transform="translate(-38.316 -21.185)" fill="#cfcfcf"/><path d="M51.468,21.286h1.86l1.829,30.509a2.014,2.014,0,0,1-2.17,1.809H49.867Z" transform="translate(-34.631 -21.286)" fill="#cfcfcf"/><path d="M57.3,35.231H43.757v5.308H57.3Z" transform="translate(-40.355 -8.223)" fill="#cfcfcf"/><path d="M47.469,35.5l5.135.418,1.912,121.307c0,1.412-1.542,2.557-3.443,2.557H47.408c-1.664,0-3.013-1-3.013-2.237Z" transform="translate(-39.757 -7.974)" fill="#cfcfcf"/></g><path d="M-111.149-35.574h15.667v7.119H-101.9v6.746h5.713v6.768H-101.9V0h-9.25Zm37.727,16.655v7.141a30.135,30.135,0,0,1-.4,5.768,8.1,8.1,0,0,1-1.692,3.428A7.641,7.641,0,0,1-78.838-.231a13.312,13.312,0,0,1-4.669.758,16.656,16.656,0,0,1-4.988-.648A6.8,6.8,0,0,1-91.67-2.076,7.727,7.727,0,0,1-93.285-5.24a23.789,23.789,0,0,1-.483-5.57v-7.471a18.277,18.277,0,0,1,.879-6.35A7.3,7.3,0,0,1-89.725-28.3a11.137,11.137,0,0,1,5.845-1.384,13.346,13.346,0,0,1,5.131.89,8.234,8.234,0,0,1,3.307,2.318,8.2,8.2,0,0,1,1.593,2.944A18.3,18.3,0,0,1-73.422-18.918Zm-8.877-2.2a9.688,9.688,0,0,0-.242-2.823,1,1,0,0,0-1.033-.582,1.04,1.04,0,0,0-1.055.582,8.915,8.915,0,0,0-.264,2.823V-7.954a8.525,8.525,0,0,0,.264,2.692,1.013,1.013,0,0,0,1.033.626,1.022,1.022,0,0,0,1.044-.571A7.447,7.447,0,0,0-82.3-7.668Zm31.882,2.2v7.141a30.135,30.135,0,0,1-.4,5.768A8.1,8.1,0,0,1-52.5-2.582,7.641,7.641,0,0,1-55.833-.231,13.312,13.312,0,0,1-60.5.527,16.656,16.656,0,0,1-65.49-.121a6.8,6.8,0,0,1-3.175-1.956A7.727,7.727,0,0,1-70.28-5.24a23.789,23.789,0,0,1-.483-5.57v-7.471a18.277,18.277,0,0,1,.879-6.35A7.3,7.3,0,0,1-66.72-28.3a11.137,11.137,0,0,1,5.845-1.384,13.346,13.346,0,0,1,5.131.89,8.234,8.234,0,0,1,3.307,2.318,8.2,8.2,0,0,1,1.593,2.944A18.3,18.3,0,0,1-50.416-18.918Zm-8.877-2.2a9.688,9.688,0,0,0-.242-2.823,1,1,0,0,0-1.033-.582,1.04,1.04,0,0,0-1.055.582,8.915,8.915,0,0,0-.264,2.823V-7.954a8.525,8.525,0,0,0,.264,2.692,1.013,1.013,0,0,0,1.033.626,1.022,1.022,0,0,0,1.044-.571,7.447,7.447,0,0,0,.253-2.461ZM-27.3-35.574V0h-8.877V-2.115A9.175,9.175,0,0,1-38.859-.133,6.845,6.845,0,0,1-41.8.527,5.982,5.982,0,0,1-45.385-.56a4.846,4.846,0,0,1-1.945-2.516,17.92,17.92,0,0,1-.428-4.658V-21.379a18.366,18.366,0,0,1,.428-4.768,4.733,4.733,0,0,1,1.967-2.472,6.282,6.282,0,0,1,3.669-1.066,7.523,7.523,0,0,1,3.021.595,7.529,7.529,0,0,1,2.494,1.784v-8.267Zm-8.877,13.755a5.546,5.546,0,0,0-.275-2.153,1.1,1.1,0,0,0-1.088-.549,1.109,1.109,0,0,0-1.066.494,5.5,5.5,0,0,0-.275,2.208V-7.537a6.575,6.575,0,0,0,.264,2.34,1.009,1.009,0,0,0,1.011.56,1.128,1.128,0,0,0,1.143-.626,9.662,9.662,0,0,0,.286-3.065Zm33.926,1.736H-11.5v-6.183a11.074,11.074,0,0,0-.3-3.366,1.274,1.274,0,0,0-1.307-.669,1.367,1.367,0,0,0-1.45.813,12.371,12.371,0,0,0-.308,3.516V-9.448a11.532,11.532,0,0,0,.308,3.384,1.316,1.316,0,0,0,1.384.791,1.3,1.3,0,0,0,1.351-.793A12.936,12.936,0,0,0-11.5-9.789V-14.26h9.25v1.386a27.348,27.348,0,0,1-.78,7.834A8,8,0,0,1-6.482-.991,11.81,11.81,0,0,1-13.063.747a13.632,13.632,0,0,1-6.7-1.472A7.158,7.158,0,0,1-23.258-4.8a26.75,26.75,0,0,1-.857-7.833V-23.027a46.212,46.212,0,0,1,.264-5.768,8.074,8.074,0,0,1,1.571-3.7,8.76,8.76,0,0,1,3.625-2.8,13.1,13.1,0,0,1,5.328-1.022,13.04,13.04,0,0,1,6.746,1.58A7.578,7.578,0,0,1-3.087-30.8a23.681,23.681,0,0,1,.835,7.34ZM9.679-35.574v8a7.966,7.966,0,0,1,2.472-1.586A7.628,7.628,0,0,1,15-29.685,6.576,6.576,0,0,1,18.962-28.5a4.755,4.755,0,0,1,2,2.736,29.133,29.133,0,0,1,.363,5.658V0H12.448V-20.522a12.769,12.769,0,0,0-.253-3.274,1.069,1.069,0,0,0-1.132-.725,1.08,1.08,0,0,0-1.1.747,9.889,9.889,0,0,0-.286,2.966V0H.8V-35.574ZM44.462-18.918v7.141a30.135,30.135,0,0,1-.4,5.768,8.1,8.1,0,0,1-1.692,3.428A7.641,7.641,0,0,1,39.045-.231a13.312,13.312,0,0,1-4.669.758,16.656,16.656,0,0,1-4.988-.648,6.8,6.8,0,0,1-3.175-1.956A7.727,7.727,0,0,1,24.6-5.24a23.789,23.789,0,0,1-.483-5.57v-7.471a18.277,18.277,0,0,1,.879-6.35A7.3,7.3,0,0,1,28.158-28.3,11.137,11.137,0,0,1,34-29.685a13.346,13.346,0,0,1,5.131.89,8.234,8.234,0,0,1,3.307,2.318,8.2,8.2,0,0,1,1.593,2.944A18.3,18.3,0,0,1,44.462-18.918Zm-8.877-2.2a9.688,9.688,0,0,0-.242-2.823,1,1,0,0,0-1.033-.582,1.04,1.04,0,0,0-1.055.582,8.915,8.915,0,0,0-.264,2.823V-7.954a8.525,8.525,0,0,0,.264,2.692,1.013,1.013,0,0,0,1.033.626,1.022,1.022,0,0,0,1.044-.571,7.447,7.447,0,0,0,.253-2.461Zm31.882,2.2v7.141a30.135,30.135,0,0,1-.4,5.768A8.1,8.1,0,0,1,65.38-2.582,7.641,7.641,0,0,1,62.051-.231a13.312,13.312,0,0,1-4.669.758,16.656,16.656,0,0,1-4.988-.648,6.8,6.8,0,0,1-3.175-1.956A7.727,7.727,0,0,1,47.6-5.24a23.789,23.789,0,0,1-.483-5.57v-7.471A18.277,18.277,0,0,1,48-24.631,7.3,7.3,0,0,1,51.163-28.3a11.137,11.137,0,0,1,5.845-1.384,13.346,13.346,0,0,1,5.131.89,8.234,8.234,0,0,1,3.307,2.318,8.2,8.2,0,0,1,1.593,2.944A18.3,18.3,0,0,1,67.467-18.918Zm-8.877-2.2a9.688,9.688,0,0,0-.242-2.823,1,1,0,0,0-1.033-.582,1.04,1.04,0,0,0-1.055.582A8.915,8.915,0,0,0,56-21.116V-7.954a8.525,8.525,0,0,0,.264,2.692,1.013,1.013,0,0,0,1.033.626,1.022,1.022,0,0,0,1.044-.571,7.447,7.447,0,0,0,.253-2.461Zm29.927,1.274H80.651v-1.582a8.424,8.424,0,0,0-.231-2.56q-.231-.538-1.154-.538a1.315,1.315,0,0,0-1.121.494,2.445,2.445,0,0,0-.374,1.483,7.5,7.5,0,0,0,.187,1.967A3.113,3.113,0,0,0,79.08-19.2a24.376,24.376,0,0,0,3.834,2.175q3.867,1.89,5.076,3.56A8.221,8.221,0,0,1,89.2-8.613a12.229,12.229,0,0,1-.923,5.372A6.135,6.135,0,0,1,85.188-.45a12.617,12.617,0,0,1-5.219.978A14.369,14.369,0,0,1,74.18-.527a6.324,6.324,0,0,1-3.307-2.856,12.68,12.68,0,0,1-.9-5.449v-1.406h7.866v1.846a9.709,9.709,0,0,0,.3,3.054,1.15,1.15,0,0,0,1.176.7,1.593,1.593,0,0,0,1.318-.472A3.53,3.53,0,0,0,81-7.1a4.423,4.423,0,0,0-.483-2.615,40.931,40.931,0,0,0-5.164-3.12q-3.911-2.2-4.768-3.988a9.764,9.764,0,0,1-.857-4.252,11.009,11.009,0,0,1,.923-5.153,5.992,5.992,0,0,1,3.131-2.56,13.512,13.512,0,0,1,5.131-.9,14.554,14.554,0,0,1,4.933.736A7.575,7.575,0,0,1,86.968-27a5.222,5.222,0,0,1,1.318,2.241,16.264,16.264,0,0,1,.231,3.23Zm23.159,5.779H100.184v6.306a7,7,0,0,0,.286,2.549,1.11,1.11,0,0,0,1.1.571,1.333,1.333,0,0,0,1.351-.758,8.293,8.293,0,0,0,.341-2.933v-3.845h8.416v2.153a19.285,19.285,0,0,1-.341,4.153,8.452,8.452,0,0,1-1.593,3.1A7.757,7.757,0,0,1,106.567-.3a12.29,12.29,0,0,1-4.823.824,14.008,14.008,0,0,1-4.966-.813,7.949,7.949,0,0,1-3.351-2.23,8.06,8.06,0,0,1-1.659-3.12,20.144,20.144,0,0,1-.461-4.955v-8.5a14.48,14.48,0,0,1,1.033-6.031,7.092,7.092,0,0,1,3.384-3.384,11.93,11.93,0,0,1,5.405-1.176,12.088,12.088,0,0,1,6.163,1.417A7.8,7.8,0,0,1,110.7-24.51a17.614,17.614,0,0,1,.978,6.581Zm-8.9-4.746V-20.94a10.743,10.743,0,0,0-.242-2.922.955.955,0,0,0-.989-.659q-.923,0-1.143.56a11.668,11.668,0,0,0-.22,3.021v2.131Z" transform="translate(111.149 90.447)" fill="#214f4b"/></svg>